# xmcd
#
# Track frame offsets:
#	150
#	17245
#	34387
#	45717
#	56689
#	66440
#	79680
#	91490
#	109325
#	117642
#	130560
#	146522
#	158980
#	174285
#	187195
#	200720
#	211295
#	228905
#
# Disc length: 3206 seconds
#
# Revision: 1
# Processed by: cddbd v1.4b42PL1 Copyright (c) Steve Scherf et al.
# Submitted via: CDmax 1.8
#
DISCID=0b0c8412
DTITLE=Jim Croce - Words and Music
DYEAR=1900
DGENRE=
TTITLE0=Age
TTITLE1=Operator (That's Not The Way It Feels)
TTITLE2=The Hard Way Every Time
TTITLE3=Careful Man
TTITLE4=A Good Time Man Like Me Ain't Got No Business
TTITLE5=Next Time, This Time
TTITLE6=Recently
TTITLE7=Mississippi Lady
TTITLE8=Country Girl
TTITLE9=(And) I Remember Her
TTITLE10=Five Short Minutes
TTITLE11=More Than That Tomorrow
TTITLE12=King's Song
TTITLE13=Child Of Midnight
TTITLE14=Stone Walls
TTITLE15=Which Way Are You Goin'
TTITLE16=Top Hat Bar And Grille
TTITLE17=Hey Tomorrow
EXTD=
EXTT0=
EXTT1=First CD release of original hit single
EXTT2=
EXTT3=
EXTT4=(Singing The Blues)
EXTT5=
EXTT6=
EXTT7=
EXTT8=
EXTT9=
EXTT10=
EXTT11=
EXTT12=
EXTT13=Jim and Ingrid
EXTT14=
EXTT15=
EXTT16=(and talk)
EXTT17=previously unreleased original demo
PLAYORDER=
